<?xml version="1.0" encoding="UTF-8" standalone="no"?>
<svg
   xmlns:dc="http://purl.org/dc/elements/1.1/"
   xmlns:cc="http://creativecommons.org/ns#"
   xmlns:rdf="http://www.w3.org/1999/02/22-rdf-syntax-ns#"
   xmlns:svg="http://www.w3.org/2000/svg"
   xmlns="http://www.w3.org/2000/svg"
   viewBox="0 0 1311.8492 1133.728"
   height="1133.728"
   width="1311.8492"
   xml:space="preserve"
   id="svg2"
   version="1.1"><metadata
     id="metadata8"><rdf:RDF><cc:Work
         rdf:about=""><dc:format>image/svg+xml</dc:format><dc:type
           rdf:resource="http://purl.org/dc/dcmitype/StillImage" /></cc:Work></rdf:RDF></metadata><defs
     id="defs6"><clipPath
       id="clipPath20"
       clipPathUnits="userSpaceOnUse"><path
         id="path18"
         d="M 0,850.296 H 983.887 V 0 H 0 Z" /></clipPath><clipPath
       id="clipPath196"
       clipPathUnits="userSpaceOnUse"><path
         id="path194"
         d="m 298.831,569.346 h 19.425 v -19.425 h -19.425 z" /></clipPath><clipPath
       id="clipPath268"
       clipPathUnits="userSpaceOnUse"><path
         id="path266"
         d="M 408.318,566.025 H 480.71 V 349.721 h -72.392 z" /></clipPath><clipPath
       id="clipPath498"
       clipPathUnits="userSpaceOnUse"><path
         id="path496"
         d="m 705.916,195.002 h 48.473 v -63.027 h -48.473 z" /></clipPath><clipPath
       id="clipPath536"
       clipPathUnits="userSpaceOnUse"><path
         id="path534"
         d="m 607.832,417.062 h 58.71 v -58.709 h -58.71 z" /></clipPath><clipPath
       id="clipPath562"
       clipPathUnits="userSpaceOnUse"><path
         id="path560"
         d="m 457.071,116.809 h 47.084 v -8.127 h -47.084 z" /></clipPath></defs><g
     transform="matrix(1.3333333,0,0,-1.3333333,0,1133.728)"
     id="g10"><path
       id="path12"
       style="fill:#1998cf;fill-opacity:1;fill-rule:nonzero;stroke:none"
       d="M 0,0 H 983.886 V 850.297 H 0 Z" /><g
       id="g14"><g
         clip-path="url(#clipPath20)"
         id="g16"><g
           transform="translate(821.3711,498.271)"
           id="g22"><path
             id="path24"
             style="fill:#2bb1e0;fill-opacity:1;fill-rule:nonzero;stroke:none"
             d="m 0,0 h -4.311 -10.426 c -8.761,0 -15.864,-7.101 -15.864,-15.863 0,-8.764 7.103,-15.865 15.864,-15.865 H -4.311 0 33.568 c 8.761,0 15.866,7.101 15.866,15.865 C 49.434,-7.101 42.329,0 33.568,0 Z" /></g><g
           transform="translate(963.7959,625.1924)"
           id="g26"><path
             id="path28"
             style="fill:#2bb1e0;fill-opacity:1;fill-rule:nonzero;stroke:none"
             d="m 0,0 h -174.746 c -8.759,0 -15.863,7.104 -15.863,15.867 0,8.76 7.104,15.861 15.863,15.861 h 71.051 c 8.76,0 15.863,7.104 15.863,15.867 0,8.761 -7.103,15.863 -15.863,15.863 h -198.313 c -8.761,0 -15.863,7.106 -15.863,15.864 0,8.765 7.102,15.867 15.863,15.867 h 95.535 c 8.759,0 15.864,7.102 15.864,15.864 0,8.763 -7.105,15.868 -15.864,15.868 h -150.822 -217.967 -150.823 c -8.759,0 -15.864,-7.105 -15.864,-15.868 0,-8.762 7.105,-15.864 15.864,-15.864 h 95.535 c 8.76,0 15.863,-7.102 15.863,-15.867 0,-8.758 -7.103,-15.864 -15.863,-15.864 h -198.312 c -8.761,0 -15.864,-7.102 -15.864,-15.863 0,-8.763 7.103,-15.867 15.864,-15.867 h 71.05 c 8.759,0 15.863,-7.101 15.863,-15.861 C -741.949,7.104 -749.053,0 -757.812,0 h -174.747 c -8.76,0 -15.863,-7.105 -15.863,-15.864 0,-8.761 7.103,-15.866 15.863,-15.866 h 170.84 c 8.759,0 15.864,-7.105 15.864,-15.868 0,-8.76 -7.105,-15.863 -15.864,-15.863 h -3.871 c -8.764,0 -15.865,-7.102 -15.865,-15.864 0,-8.764 7.101,-15.868 15.865,-15.868 h 83.213 c 8.762,0 15.865,-7.101 15.865,-15.863 0,-8.763 -7.103,-15.865 -15.865,-15.865 h -19.683 c -8.76,0 -15.864,-7.101 -15.864,-15.864 0,-8.761 7.104,-15.864 15.864,-15.864 h 95.9 c 8.76,0 15.863,-7.103 15.863,-15.867 0,-8.762 -7.103,-15.865 -15.863,-15.865 h -198.313 c -8.763,0 -15.863,-7.101 -15.863,-15.865 0,-8.761 7.1,-15.864 15.863,-15.864 h 71.049 c 8.761,0 15.863,-7.103 15.863,-15.863 0,-8.762 -7.102,-15.868 -15.863,-15.868 h -174.748 c -8.758,0 -15.861,-7.102 -15.861,-15.863 0,-8.764 7.103,-15.863 15.861,-15.863 h 37.733 c 0.009,0 0.021,-0.003 0.033,-0.003 h 133.072 c 8.764,0 15.866,-7.104 15.866,-15.867 0,-8.761 -7.102,-15.863 -15.866,-15.863 h -3.869 c -8.761,0 -15.863,-7.103 -15.863,-15.865 0,-8.764 7.102,-15.866 15.863,-15.866 h 83.215 c 8.762,0 15.865,-7.101 15.865,-15.863 0,-8.761 -7.103,-15.867 -15.865,-15.867 h -19.682 c -8.764,0 -15.865,-7.101 -15.865,-15.862 0,-8.761 7.101,-15.866 15.865,-15.866 h 102.408 217.967 102.407 c 8.761,0 15.866,7.105 15.866,15.866 0,8.761 -7.105,15.862 -15.866,15.862 h -19.68 c -8.766,0 -15.868,7.106 -15.868,15.867 0,8.762 7.102,15.863 15.868,15.863 h 83.214 c 8.76,0 15.863,7.102 15.863,15.866 0,8.762 -7.103,15.865 -15.863,15.865 h -3.87 c -8.762,0 -15.868,7.102 -15.868,15.863 0,8.763 7.106,15.867 15.868,15.867 H -62.15 c 0.011,0 0.021,0.003 0.033,0.003 h 37.732 c 8.756,0 15.861,7.099 15.861,15.863 0,8.761 -7.105,15.863 -15.861,15.863 h -174.749 c -8.761,0 -15.863,7.106 -15.863,15.868 0,8.76 7.102,15.863 15.863,15.863 h 71.049 c 8.764,0 15.863,7.103 15.863,15.864 0,8.764 -7.099,15.865 -15.863,15.865 h -198.312 c -8.761,0 -15.864,7.103 -15.864,15.865 0,8.764 7.103,15.867 15.864,15.867 h 95.899 c 8.761,0 15.863,7.103 15.863,15.864 0,8.763 -7.102,15.864 -15.863,15.864 h -19.683 c -8.76,0 -15.865,7.102 -15.865,15.865 0,8.762 7.105,15.863 15.865,15.863 h 83.213 c 8.764,0 15.866,7.104 15.866,15.868 0,8.762 -7.102,15.864 -15.866,15.864 h -3.87 c -8.76,0 -15.863,7.103 -15.863,15.863 0,8.763 7.103,15.868 15.863,15.868 L 0,-31.73 c 8.761,0 15.863,7.105 15.863,15.866 C 15.863,-7.105 8.761,0 0,0" /></g><g
           transform="translate(872.2031,307.8926)"
           id="g30"><path
             id="path32"
             style="fill:#2bb1e0;fill-opacity:1;fill-rule:nonzero;stroke:none"
             d="m 0,0 h -37.879 c -8.761,0 -15.866,-7.104 -15.866,-15.865 0,-8.764 7.105,-15.866 15.866,-15.866 H 0 c 8.761,0 15.865,7.102 15.865,15.866 C 15.865,-7.104 8.761,0 0,0" /></g><g
           transform="translate(796.9814,244.4316)"
           id="g34"><path
             id="path36"
             style="fill:#2bb1e0;fill-opacity:1;fill-rule:nonzero;stroke:none"
             d="M 0,0 H -14.734 C -23.498,0 -30.6,-7.102 -30.6,-15.862 c 0,-8.765 7.102,-15.867 15.866,-15.867 H 0 c 8.764,0 15.863,7.102 15.863,15.867 C 15.863,-7.102 8.764,0 0,0" /></g><g
           transform="translate(841.4502,720.3818)"
           id="g38"><path
             id="path40"
             style="fill:#2bb1e0;fill-opacity:1;fill-rule:nonzero;stroke:none"
             d="m 0,0 h 37.877 c 8.763,0 15.867,7.101 15.867,15.863 0,8.765 -7.104,15.869 -15.867,15.869 H 0 c -8.764,0 -15.865,-7.104 -15.865,-15.869 C -15.865,7.101 -8.764,0 0,0" /></g><g
           transform="translate(912.458,545.8672)"
           id="g42"><path
             id="path44"
             style="fill:#2bb1e0;fill-opacity:1;fill-rule:nonzero;stroke:none"
             d="M 0,0 C 0,8.762 -7.103,15.864 -15.865,15.864 H -53.744 C -62.508,15.864 -69.61,8.762 -69.61,0 c 0,-8.764 7.102,-15.868 15.866,-15.868 h 37.879 C -7.103,-15.868 0,-8.764 0,0" /></g><g
           transform="translate(124.2295,482.4077)"
           id="g46"><path
             id="path48"
             style="fill:#2bb1e0;fill-opacity:1;fill-rule:nonzero;stroke:none"
             d="m 0,0 c 0,-8.764 7.104,-15.864 15.865,-15.864 h 33.57 4.309 10.426 c 8.762,0 15.866,7.1 15.866,15.864 0,8.762 -7.104,15.863 -15.866,15.863 H 53.744 49.435 15.865 C 7.104,15.863 0,8.762 0,0" /></g><g
           transform="translate(160.709,307.8926)"
           id="g50"><path
             id="path52"
             style="fill:#2bb1e0;fill-opacity:1;fill-rule:nonzero;stroke:none"
             d="m 0,0 h -37.88 c -8.76,0 -15.863,-7.104 -15.863,-15.865 0,-8.764 7.103,-15.866 15.863,-15.866 H 0 c 8.763,0 15.866,7.102 15.866,15.866 C 15.866,-7.104 8.763,0 0,0" /></g><g
           transform="translate(212.7881,244.4316)"
           id="g54"><path
             id="path56"
             style="fill:#2bb1e0;fill-opacity:1;fill-rule:nonzero;stroke:none"
             d="m 0,0 h -14.735 c -8.762,0 -15.864,-7.102 -15.864,-15.862 0,-8.765 7.102,-15.867 15.864,-15.867 H 0 c 8.763,0 15.865,7.102 15.865,15.867 C 15.865,-7.102 8.763,0 0,0" /></g><g
           transform="translate(115.708,720.3818)"
           id="g58"><path
             id="path60"
             style="fill:#2bb1e0;fill-opacity:1;fill-rule:nonzero;stroke:none"
             d="m 0,0 h 37.876 c 8.764,0 15.866,7.101 15.866,15.863 0,8.765 -7.102,15.869 -15.866,15.869 H 0 c -8.764,0 -15.867,-7.104 -15.867,-15.869 C -15.867,7.101 -8.764,0 0,0" /></g><g
           transform="translate(136.3213,561.7314)"
           id="g62"><path
             id="path64"
             style="fill:#2bb1e0;fill-opacity:1;fill-rule:nonzero;stroke:none"
             d="m 0,0 h -37.879 c -8.764,0 -15.866,-7.102 -15.866,-15.864 0,-8.764 7.102,-15.868 15.866,-15.868 H 0 c 8.761,0 15.863,7.104 15.863,15.868 C 15.863,-7.102 8.761,0 0,0" /></g><g
           transform="translate(314.2578,553.6387)"
           id="g66"><path
             id="path68"
             style="fill:#fafafa;fill-opacity:1;fill-rule:nonzero;stroke:none"
             d="m 0,0 h -6.309 c -1.548,0 -2.803,1.255 -2.803,2.804 0,1.549 1.255,2.804 2.803,2.804 H 0 C 1.549,5.608 2.804,4.353 2.804,2.804 2.804,1.255 1.549,0 0,0" /></g><g
           transform="translate(243.0264,553.6387)"
           id="g70"><path
             id="path72"
             style="fill:#fafafa;fill-opacity:1;fill-rule:nonzero;stroke:none"
             d="m 0,0 h -12.982 c -1.549,0 -2.805,1.255 -2.805,2.804 0,1.549 1.256,2.804 2.805,2.804 H 0 C 1.549,5.608 2.805,4.353 2.805,2.804 2.805,1.255 1.549,0 0,0 M 25.971,0 H 12.985 c -1.547,0 -2.803,1.255 -2.803,2.804 0,1.549 1.256,2.804 2.803,2.804 h 12.986 c 1.549,0 2.803,-1.255 2.803,-2.804 C 28.774,1.255 27.52,0 25.971,0 M 51.939,0 H 38.954 c -1.549,0 -2.804,1.255 -2.804,2.804 0,1.549 1.255,2.804 2.804,2.804 h 12.985 c 1.548,0 2.804,-1.255 2.804,-2.804 C 54.743,1.255 53.487,0 51.939,0 m -89.456,-5.455 c -0.731,0 -1.461,0.285 -2.009,0.85 -1.081,1.11 -1.056,2.885 0.054,3.965 3.581,3.482 8.284,5.663 13.238,6.144 1.547,0.15 2.913,-0.979 3.06,-2.521 0.151,-1.541 -0.978,-2.912 -2.519,-3.061 -3.692,-0.358 -7.198,-1.986 -9.869,-4.583 -0.544,-0.53 -1.25,-0.794 -1.955,-0.794 m -5.838,-24.372 c -1.549,0 -2.805,1.256 -2.805,2.805 v 10.551 c 0,0.924 0.058,1.858 0.174,2.776 0.193,1.538 1.597,2.63 3.132,2.432 1.537,-0.193 2.625,-1.596 2.432,-3.132 -0.086,-0.687 -0.131,-1.385 -0.131,-2.076 v -10.551 c 0,-1.549 -1.255,-2.805 -2.802,-2.805 m 0,-25.968 c -1.549,0 -2.805,1.255 -2.805,2.804 v 12.984 c 0,1.549 1.256,2.804 2.805,2.804 1.547,0 2.802,-1.255 2.802,-2.804 v -12.984 c 0,-1.549 -1.255,-2.804 -2.802,-2.804 m 0,-25.97 c -1.549,0 -2.805,1.255 -2.805,2.805 v 12.984 c 0,1.548 1.256,2.804 2.805,2.804 1.547,0 2.802,-1.256 2.802,-2.804 V -78.96 c 0,-1.55 -1.255,-2.805 -2.802,-2.805 m 0,-25.969 c -1.549,0 -2.805,1.256 -2.805,2.804 v 12.985 c 0,1.549 1.256,2.804 2.805,2.804 1.547,0 2.802,-1.255 2.802,-2.804 v -12.985 c 0,-1.548 -1.255,-2.804 -2.802,-2.804" /></g><g
           transform="translate(199.6709,426.5903)"
           id="g74"><path
             id="path76"
             style="fill:#fafafa;fill-opacity:1;fill-rule:nonzero;stroke:none"
             d="m 0,0 c -1.549,0 -2.805,1.256 -2.805,2.804 v 6.309 c 0,1.549 1.256,2.804 2.805,2.804 1.548,0 2.803,-1.255 2.803,-2.804 V 2.804 C 2.803,1.256 1.548,0 0,0" /></g><g
           transform="translate(445.1152,668.6475)"
           id="g78"><path
             id="path80"
             style="fill:#fafafa;fill-opacity:1;fill-rule:nonzero;stroke:none"
             d="m 0,0 c -1.548,0 -2.804,1.255 -2.804,2.804 v 6.309 c 0,1.549 1.256,2.804 2.804,2.804 1.548,0 2.804,-1.255 2.804,-2.804 V 2.804 C 2.804,1.255 1.548,0 0,0" /></g><g
           transform="translate(445.1152,641.4604)"
           id="g82"><path
             id="path84"
             style="fill:#fafafa;fill-opacity:1;fill-rule:nonzero;stroke:none"
             d="m 0,0 c -1.548,0 -2.804,1.255 -2.804,2.804 v 13.593 c 0,1.549 1.256,2.805 2.804,2.805 1.548,0 2.804,-1.256 2.804,-2.805 V 2.804 C 2.804,1.255 1.548,0 0,0 m 0,-27.187 c -1.548,0 -2.804,1.255 -2.804,2.804 v 13.593 c 0,1.549 1.256,2.805 2.804,2.805 1.548,0 2.804,-1.256 2.804,-2.805 v -13.593 c 0,-1.549 -1.256,-2.804 -2.804,-2.804 m 0,-27.187 c -1.548,0 -2.804,1.255 -2.804,2.804 v 13.593 c 0,1.549 1.256,2.804 2.804,2.804 1.548,0 2.804,-1.255 2.804,-2.804 V -51.57 c 0,-1.549 -1.256,-2.804 -2.804,-2.804" /></g><g
           transform="translate(445.1152,567.1831)"
           id="g86"><path
             id="path88"
             style="fill:#fafafa;fill-opacity:1;fill-rule:nonzero;stroke:none"
             d="m 0,0 c -1.548,0 -2.804,1.255 -2.804,2.804 v 6.309 c 0,1.549 1.256,2.804 2.804,2.804 1.548,0 2.804,-1.255 2.804,-2.804 V 2.804 C 2.804,1.255 1.548,0 0,0" /></g><g
           transform="translate(731.458,680.1807)"
           id="g90"><path
             id="path92"
             style="fill:#eeeeee;fill-opacity:1;fill-rule:nonzero;stroke:none"
             d="m 0,0 c -30.371,0 -57.009,-22.354 -61.472,-53.276 -2.372,-16.432 1.799,-32.802 11.74,-46.097 9.942,-13.295 24.466,-21.922 40.896,-24.295 33.916,-4.881 65.494,18.717 70.39,52.634 C 66.449,-37.116 42.838,-5.539 8.922,-0.642 5.926,-0.209 2.943,0 0,0 m 0.085,-128.516 c -3.144,0 -6.321,0.223 -9.522,0.686 -17.543,2.531 -33.05,11.744 -43.665,25.938 -10.613,14.195 -15.065,31.674 -12.533,49.215 5.229,36.214 38.953,61.434 75.156,56.197 36.213,-5.228 61.422,-38.941 56.195,-75.154 -4.765,-33.012 -33.207,-56.882 -65.631,-56.882" /></g><g
           transform="translate(731.4736,657.6035)"
           id="g94"><path
             id="path96"
             style="fill:#eeeeee;fill-opacity:1;fill-rule:nonzero;stroke:none"
             d="m 0,0 c -19.34,0 -36.301,-14.234 -39.142,-33.925 -3.118,-21.596 11.917,-41.702 33.515,-44.822 21.589,-3.111 41.701,11.916 44.82,33.516 1.51,10.461 -1.144,20.886 -7.473,29.352 C 25.391,-7.414 16.141,-1.92 5.678,-0.41 3.771,-0.134 1.873,0 0,0 m 0.121,-84.77 c -2.174,0 -4.361,0.157 -6.55,0.473 -24.658,3.56 -41.821,26.518 -38.264,51.174 1.724,11.945 7.996,22.502 17.662,29.73 9.663,7.228 21.563,10.259 33.51,8.534 11.945,-1.724 22.503,-7.997 29.73,-17.662 7.229,-9.666 10.258,-21.567 8.535,-33.513 C 43.02,-57.978 36.748,-68.536 27.082,-75.763 19.187,-81.666 9.804,-84.77 0.121,-84.77" /></g><g
           transform="translate(731.4912,633.6558)"
           id="g98"><path
             id="path100"
             style="fill:#eeeeee;fill-opacity:1;fill-rule:nonzero;stroke:none"
             d="m 0,0 c -7.641,0 -14.338,-5.621 -15.461,-13.397 -1.232,-8.53 4.707,-16.471 13.236,-17.702 8.539,-1.246 16.472,4.707 17.702,13.237 1.232,8.529 -4.707,16.469 -13.238,17.7 C 1.489,-0.052 0.738,0 0,0 m 0.021,-38.272 c -1.073,0 -2.158,0.077 -3.248,0.234 -12.354,1.784 -20.955,13.288 -19.172,25.643 C -20.614,-0.041 -9.111,8.557 3.242,6.777 15.597,4.993 24.197,-6.509 22.415,-18.864 20.789,-30.127 11.084,-38.272 0.021,-38.272" /></g><g
           transform="translate(634.2627,641.3169)"
           id="g102"><path
             id="path104"
             style="fill:#ffffff;fill-opacity:1;fill-rule:nonzero;stroke:none"
             d="m 0,0 h -7.082 v 7.083 c 0,0.829 -0.673,1.501 -1.502,1.501 -0.829,0 -1.502,-0.672 -1.502,-1.501 V 0 h -7.082 c -0.83,0 -1.502,-0.672 -1.502,-1.502 0,-0.829 0.672,-1.501 1.502,-1.501 h 7.082 v -7.083 c 0,-0.83 0.673,-1.502 1.502,-1.502 0.829,0 1.502,0.672 1.502,1.502 v 7.083 H 0 c 0.829,0 1.502,0.672 1.502,1.501 C 1.502,-0.672 0.829,0 0,0" /></g><g
           transform="translate(226.0264,722.1543)"
           id="g106"><path
             id="path108"
             style="fill:#ffffff;fill-opacity:1;fill-rule:nonzero;stroke:none"
             d="m 0,0 h -7.082 v 7.083 c 0,0.829 -0.673,1.501 -1.502,1.501 -0.829,0 -1.502,-0.672 -1.502,-1.501 V 0 h -7.083 c -0.829,0 -1.501,-0.672 -1.501,-1.502 0,-0.829 0.672,-1.501 1.501,-1.501 h 7.083 v -7.083 c 0,-0.83 0.673,-1.502 1.502,-1.502 0.829,0 1.502,0.672 1.502,1.502 v 7.083 H 0 c 0.83,0 1.502,0.672 1.502,1.501 C 1.502,-0.672 0.83,0 0,0" /></g><g
           transform="translate(201.79,607.6821)"
           id="g110"><path
             id="path112"
             style="fill:#ffffff;fill-opacity:1;fill-rule:nonzero;stroke:none"
             d="m 0,0 h -7.083 v 7.083 c 0,0.829 -0.672,1.501 -1.502,1.501 -0.829,0 -1.502,-0.672 -1.502,-1.501 V 0 h -7.083 c -0.829,0 -1.502,-0.673 -1.502,-1.502 0,-0.829 0.673,-1.502 1.502,-1.502 h 7.083 v -7.082 c 0,-0.83 0.673,-1.501 1.502,-1.501 0.83,0 1.502,0.671 1.502,1.501 v 7.082 H 0 c 0.829,0 1.502,0.673 1.502,1.502 C 1.502,-0.673 0.829,0 0,0" /></g><g
           transform="translate(375.9014,315.3359)"
           id="g114"><path
             id="path116"
             style="fill:#ffffff;fill-opacity:1;fill-rule:nonzero;stroke:none"
             d="m 0,0 h -4.068 v 4.068 c 0,0.477 -0.386,0.864 -0.863,0.864 -0.476,0 -0.862,-0.387 -0.862,-0.864 V 0 h -4.069 c -0.477,0 -0.863,-0.387 -0.863,-0.861 0,-0.479 0.386,-0.865 0.863,-0.865 h 4.069 v -4.067 c 0,-0.477 0.386,-0.863 0.862,-0.863 0.477,0 0.863,0.386 0.863,0.863 v 4.067 H 0 c 0.477,0 0.863,0.386 0.863,0.865 C 0.863,-0.387 0.477,0 0,0" /></g><g
           transform="translate(506.165,724.5371)"
           id="g118"><path
             id="path120"
             style="fill:#ffffff;fill-opacity:1;fill-rule:nonzero;stroke:none"
             d="m 0,0 h -4.068 v 4.069 c 0,0.476 -0.387,0.863 -0.864,0.863 -0.476,0 -0.862,-0.387 -0.862,-0.863 V 0 h -4.067 c -0.477,0 -0.864,-0.386 -0.864,-0.862 0,-0.477 0.387,-0.863 0.864,-0.863 h 4.067 v -4.069 c 0,-0.476 0.386,-0.863 0.862,-0.863 0.477,0 0.864,0.387 0.864,0.863 v 4.069 H 0 c 0.477,0 0.863,0.386 0.863,0.863 C 0.863,-0.386 0.477,0 0,0" /></g><g
           transform="translate(323.1875,731.6016)"
           id="g122"><path
             id="path124"
             style="fill:#ffffff;fill-opacity:1;fill-rule:nonzero;stroke:none"
             d="m 0,0 h -4.067 v 4.068 c 0,0.477 -0.388,0.864 -0.865,0.864 -0.476,0 -0.862,-0.387 -0.862,-0.864 V 0 h -4.068 c -0.477,0 -0.863,-0.386 -0.863,-0.863 0,-0.476 0.386,-0.862 0.863,-0.862 h 4.068 v -4.069 c 0,-0.477 0.386,-0.863 0.862,-0.863 0.477,0 0.865,0.386 0.865,0.863 v 4.069 H 0 c 0.477,0 0.862,0.386 0.862,0.862 C 0.862,-0.386 0.477,0 0,0" /></g><g
           transform="translate(288.4814,376.1909)"
           id="g126"><path
             id="path128"
             style="fill:#ffffff;fill-opacity:1;fill-rule:nonzero;stroke:none"
             d="m 0,0 h -4.069 v 4.069 c 0,0.476 -0.386,0.863 -0.863,0.863 -0.476,0 -0.863,-0.387 -0.863,-0.863 V 0 h -4.068 c -0.477,0 -0.864,-0.386 -0.864,-0.862 0,-0.477 0.387,-0.863 0.864,-0.863 h 4.068 v -4.068 c 0,-0.476 0.387,-0.864 0.863,-0.864 0.477,0 0.863,0.388 0.863,0.864 v 4.068 H 0 c 0.477,0 0.862,0.386 0.862,0.863 C 0.862,-0.386 0.477,0 0,0" /></g><g
           transform="translate(232.4111,679.6294)"
           id="g130"><path
             id="path132"
             style="fill:#fafafa;fill-opacity:1;fill-rule:nonzero;stroke:none"
             d="M 0,0 V 15.241 L 14.926,3.035 29.814,15.264 V 0 c 0,-1.017 -0.828,-1.844 -1.844,-1.844 H 1.844 C 0.826,-1.844 0,-1.017 0,0 M 26.682,17.867 14.926,8.451 3.101,17.867 Z M 27.97,-5.819 c 3.21,0 5.819,2.609 5.819,5.819 v 16.021 c 0,3.21 -2.609,5.822 -5.819,5.822 H 1.844 c -3.211,0 -5.819,-2.612 -5.819,-5.822 L -3.975,0 c 0,-3.21 2.608,-5.819 5.819,-5.819 z" /></g><g
           transform="translate(507.0322,649.0601)"
           id="g134"><path
             id="path136"
             style="fill:#fafafa;fill-opacity:1;fill-rule:nonzero;stroke:none"
             d="m 0,0 c -2.554,0 -4.623,-2.07 -4.623,-4.623 0,-2.553 2.069,-4.622 4.623,-4.622 2.552,0 4.622,2.069 4.622,4.622 C 4.622,-2.07 2.552,0 0,0" /></g><g
           transform="translate(404.3525,675.9819)"
           id="g138"><path
             id="path140"
             style="fill:#fafafa;fill-opacity:1;fill-rule:nonzero;stroke:none"
             d="m 0,0 c -1.275,0 -2.311,-1.034 -2.311,-2.311 0,-1.276 1.036,-2.311 2.311,-2.311 1.276,0 2.312,1.035 2.312,2.311 C 2.312,-1.034 1.276,0 0,0" /></g><g
           transform="translate(183.1182,565.2739)"
           id="g142"><path
             id="path144"
             style="fill:#fafafa;fill-opacity:1;fill-rule:nonzero;stroke:none"
             d="m 0,0 c -2.552,0 -4.621,-2.07 -4.621,-4.623 0,-2.553 2.069,-4.622 4.621,-4.622 2.554,0 4.624,2.069 4.624,4.622 C 4.624,-2.07 2.554,0 0,0" /></g><g
           transform="translate(236.1045,444.6685)"
           id="g146"><path
             id="path148"
             style="fill:#fafafa;fill-opacity:1;fill-rule:nonzero;stroke:none"
             d="m 0,0 c -2.552,0 -4.622,-2.07 -4.622,-4.622 0,-2.553 2.07,-4.622 4.622,-4.622 2.554,0 4.622,2.069 4.622,4.622 C 4.622,-2.07 2.554,0 0,0" /></g><g
           transform="translate(783.5439,560.6514)"
           id="g150"><path
             id="path152"
             style="fill:#fafafa;fill-opacity:1;fill-rule:nonzero;stroke:none"
             d="m 0,0 c -2.552,0 -4.622,-2.069 -4.622,-4.622 0,-2.553 2.07,-4.623 4.622,-4.623 2.554,0 4.623,2.07 4.623,4.623 C 4.623,-2.069 2.554,0 0,0" /></g><g
           transform="translate(629.9717,319.0957)"
           id="g154"><path
             id="path156"
             style="fill:#fafafa;fill-opacity:1;fill-rule:nonzero;stroke:none"
             d="m 0,0 c -2.553,0 -4.623,-2.069 -4.623,-4.621 0,-2.555 2.07,-4.624 4.623,-4.624 2.553,0 4.622,2.069 4.622,4.624 C 4.622,-2.069 2.553,0 0,0" /></g><g
           transform="translate(283.5498,323.7187)"
           id="g158"><path
             id="path160"
             style="fill:#fafafa;fill-opacity:1;fill-rule:nonzero;stroke:none"
             d="m 0,0 c -2.554,0 -4.623,-2.07 -4.623,-4.623 0,-2.553 2.069,-4.621 4.623,-4.621 2.553,0 4.622,2.068 4.622,4.621 C 4.622,-2.07 2.553,0 0,0" /></g><g
           transform="translate(575.8857,633.3735)"
           id="g162"><path
             id="path164"
             style="fill:#fafafa;fill-opacity:1;fill-rule:nonzero;stroke:none"
             d="M 0,0 C 1.432,2.021 2.658,4.417 3.654,7.095 H 8.729 C 6.371,4.145 3.396,1.723 0,0 m -32.506,7.095 h 5.076 c 0.994,-2.678 2.223,-5.074 3.653,-7.095 -3.396,1.723 -6.371,4.145 -8.729,7.095 m 8.729,39.987 c -1.43,-2.023 -2.659,-4.419 -3.655,-7.098 h -5.075 c 2.358,2.951 5.334,5.374 8.73,7.098 M 8.73,39.984 H 3.654 C 2.658,42.663 1.432,45.059 0,47.081 3.397,45.358 6.373,42.935 8.73,39.984 M 6.375,25.703 c -0.141,3.526 -0.601,6.88 -1.369,9.956 h 6.535 c 1.572,-3.027 2.57,-6.39 2.861,-9.956 z m 0,-4.325 h 8.027 C 14.111,17.811 13.113,14.447 11.539,11.421 H 5.006 c 0.767,3.076 1.228,6.431 1.369,9.957 m -16.1,-9.957 v 9.957 H 2.053 C 1.891,17.832 1.344,14.461 0.484,11.421 Z m 0,-13.918 v 9.592 h 8.689 C -3.188,2.096 -6.268,-1.433 -9.725,-2.497 m -4.326,9.592 v -9.592 c -3.459,1.063 -6.539,4.593 -8.69,9.592 z M -25.83,21.378 h 11.779 v -9.957 h -10.21 c -0.86,3.04 -1.409,6.411 -1.569,9.957 m -4.322,4.325 h -8.028 c 0.292,3.566 1.29,6.929 2.862,9.956 h 6.535 c -0.768,-3.076 -1.23,-6.43 -1.369,-9.956 m 16.101,9.956 V 25.703 H -25.83 c 0.16,3.546 0.709,6.915 1.568,9.956 z m 0,13.919 v -9.594 h -8.69 c 2.151,5.001 5.231,8.53 8.69,9.594 M 0.484,35.659 c 0.86,-3.041 1.407,-6.41 1.569,-9.956 H -9.725 v 9.956 z m -10.209,4.325 v 9.594 c 3.457,-1.064 6.537,-4.594 8.689,-9.594 z M -38.18,21.378 h 8.028 c 0.139,-3.526 0.602,-6.881 1.369,-9.957 h -6.533 c -1.574,3.026 -2.572,6.39 -2.864,9.957 m 26.292,32.89 c -16.942,0 -30.726,-13.785 -30.726,-30.727 0,-16.943 13.784,-30.728 30.726,-30.728 16.944,0 30.725,13.785 30.725,30.728 0,16.942 -13.781,30.727 -30.725,30.727" /></g><g
           transform="translate(226.3975,423.2129)"
           id="g166"><path
             id="path168"
             style="fill:#e0e0e0;fill-opacity:1;fill-rule:nonzero;stroke:none"
             d="M 0,0 C -0.756,1.728 -2.463,2.845 -4.35,2.845 H -39.449 V -12.388 H 5.415 Z" /></g><g
           transform="translate(283.8447,410.8247)"
           id="g170"><path
             id="path172"
             style="fill:#fafafa;fill-opacity:1;fill-rule:nonzero;stroke:none"
             d="m 0,0 h -111.268 v -63.374 c 0,-2.324 1.885,-4.209 4.209,-4.209 H 0 c 2.324,0 4.208,1.885 4.208,4.209 V -4.208 C 4.208,-1.884 2.324,0 0,0" /></g><g
           transform="translate(212.0264,423.2129)"
           id="g174"><path
             id="path176"
             style="fill:#eeeeee;fill-opacity:1;fill-rule:nonzero;stroke:none"
             d="m 0,0 c -0.756,1.728 -2.463,2.845 -4.35,2.845 h -30.89 c -2.324,0 -4.209,-1.884 -4.209,-4.209 V -12.388 H 5.416 Z" /></g><g
           transform="translate(386.7812,548.2017)"
           id="g178"><path
             id="path180"
             style="fill:#ffffff;fill-opacity:1;fill-rule:nonzero;stroke:none"
             d="M 0,0 C -38.619,38.619 -101.231,38.619 -139.851,0 -101.231,-38.619 -38.619,-38.619 0,0" /></g><g
           transform="translate(340.4375,548.2017)"
           id="g182"><path
             id="path184"
             style="fill:#039be5;fill-opacity:1;fill-rule:nonzero;stroke:none"
             d="m 0,0 c 0,-13.023 -10.558,-23.581 -23.582,-23.581 -13.023,0 -23.581,10.558 -23.581,23.581 0,13.023 10.558,23.582 23.581,23.582 C -10.558,23.582 0,13.023 0,0" /></g><g
           transform="translate(330.9912,548.2017)"
           id="g186"><path
             id="path188"
             style="fill:#424242;fill-opacity:1;fill-rule:nonzero;stroke:none"
             d="m 0,0 c 0,-7.807 -6.329,-14.135 -14.136,-14.135 -7.805,0 -14.134,6.328 -14.134,14.135 0,7.807 6.329,14.135 14.134,14.135 C -6.329,14.135 0,7.807 0,0" /></g><g
           id="g190"><g
             id="g192" /><g
             id="g204"><g
               id="g202"
               clip-path="url(#clipPath196)"><g
                 id="g200"
                 transform="translate(317.4678,568.5576)"><path
                   id="path198"
                   style="fill:#ffffff;fill-opacity:1;fill-rule:nonzero;stroke:none"
                   d="m 0,0 c -2.113,2.114 -7.822,-0.167 -12.752,-5.097 -4.928,-4.928 -7.211,-10.638 -5.097,-12.751 2.115,-2.114 7.824,0.168 12.752,5.097 C -0.168,-7.823 2.113,-2.114 0,0" /></g></g></g></g><g
           transform="translate(822.9033,575.1426)"
           id="g206"><path
             id="path208"
             style="fill:#fafafa;fill-opacity:1;fill-rule:nonzero;stroke:none"
             d="m 0,0 c -4.678,0 -8.467,-3.791 -8.467,-8.467 0,-4.676 3.789,-8.467 8.467,-8.467 4.676,0 8.467,3.791 8.467,8.467 C 8.467,-3.791 4.676,0 0,0" /></g><g
           transform="translate(837.6406,581.4131)"
           id="g210"><path
             id="path212"
             style="fill:#fafafa;fill-opacity:1;fill-rule:nonzero;stroke:none"
             d="m 0,0 c -4.429,4.429 -10.317,6.868 -16.581,6.867 -1.439,0 -2.606,-1.166 -2.606,-2.605 0,-1.439 1.168,-2.606 2.606,-2.605 4.872,0 9.451,-1.897 12.896,-5.341 3.446,-3.446 5.341,-8.025 5.341,-12.896 0,-0.72 0.292,-1.371 0.765,-1.842 0.471,-0.472 1.122,-0.764 1.841,-0.764 1.439,0 2.605,1.166 2.605,2.605 C 6.867,-10.316 4.428,-4.429 0,0" /></g><g
           transform="translate(856.8818,564.8335)"
           id="g214"><path
             id="path216"
             style="fill:#fafafa;fill-opacity:1;fill-rule:nonzero;stroke:none"
             d="m 0,0 c 0,19.75 -16.068,35.82 -35.822,35.822 -1.439,0 -2.604,-1.166 -2.604,-2.605 -0.002,-1.438 1.166,-2.606 2.604,-2.606 C -18.943,30.609 -5.212,16.878 -5.211,0 c 0.002,-0.719 0.293,-1.371 0.765,-1.842 0.47,-0.472 1.122,-0.762 1.841,-0.762 C -1.166,-2.604 0,-1.439 0,0" /></g><g
           transform="translate(482.5557,700.5244)"
           id="g218"><path
             id="path220"
             style="fill:#fafafa;fill-opacity:1;fill-rule:nonzero;stroke:none"
             d="m 0,0 c -3.416,0 -6.513,-1.339 -8.818,-3.509 -4.159,16.065 -18.75,27.929 -36.116,27.929 -14.603,0 -27.238,-8.396 -33.363,-20.62 -2.599,1.356 -5.551,2.126 -8.684,2.126 -10.388,0 -18.81,-8.421 -18.81,-18.809 H 12.885 C 12.885,-5.768 7.117,0 0,0" /></g><g
           transform="translate(616.2178,70.7705)"
           id="g222"><path
             id="path224"
             style="fill:#262f33;fill-opacity:1;fill-rule:nonzero;stroke:none"
             d="m 0,0 v 186.058 c 0,25.406 -20.594,46 -46,46 h -169.807 c -25.405,0 -46,-20.594 -46,-46 V 0 Z" /></g><g
           transform="translate(616.2178,70.7705)"
           id="g226"><path
             id="path228"
             style="fill:#101416;fill-opacity:1;fill-rule:nonzero;stroke:none"
             d="m 0,0 v 179.409 c 0,25.406 -20.594,46 -46,46 h -169.807 c -25.405,0 -46,-20.594 -46,-46 V 0 Z" /></g><g
           transform="translate(455.0283,419.3169)"
           id="g230"><path
             id="path232"
             style="fill:#f7a996;fill-opacity:1;fill-rule:nonzero;stroke:none"
             d="m 0,0 v -82.762 c 0,-14.014 11.365,-25.375 25.373,-25.375 14.01,0 25.377,11.361 25.377,25.375 V 0 Z" /></g><g
           transform="translate(455.0283,361.4458)"
           id="g234"><path
             id="path236"
             style="fill:#f48974;fill-opacity:1;fill-rule:nonzero;stroke:none"
             d="m 0,0 c 0,-13.977 11.123,-25.727 25.1,-25.792 h 0.273 0.279 C 39.625,-25.727 50.75,-13.977 50.75,0 V 33.401 H 0 Z" /></g><g
           transform="translate(425.0342,466.9155)"
           id="g238"><path
             id="path240"
             style="fill:#002538;fill-opacity:1;fill-rule:nonzero;stroke:none"
             d="M 0,0 H -1.059 C -14.592,0 -25.568,10.975 -25.568,24.511 V 70.957 H 0 Z" /></g><g
           transform="translate(560.9873,491.0581)"
           id="g242"><path
             id="path244"
             style="fill:#f8a268;fill-opacity:1;fill-rule:nonzero;stroke:none"
             d="M 0,0 C 9.533,0 17.264,-8.333 17.264,-18.613 17.264,-28.893 9.533,-37.228 0,-37.228 H -8.57 V 0 Z" /></g><g
           transform="translate(557.0068,482.4087)"
           id="g246"><path
             id="path248"
             style="fill:#e98c4d;fill-opacity:1;fill-rule:nonzero;stroke:none"
             d="m 0,0 c 5.102,0 9.24,-4.46 9.24,-9.964 0,-5.504 -4.138,-9.969 -9.24,-9.969 H -4.59 V 0 Z" /></g><g
           transform="translate(402.0459,491.0581)"
           id="g250"><path
             id="path252"
             style="fill:#f8a268;fill-opacity:1;fill-rule:nonzero;stroke:none"
             d="m 0,0 c -9.533,0 -17.266,-8.333 -17.266,-18.613 0,-10.28 7.733,-18.615 17.266,-18.615 H 8.572 V 0 Z" /></g><g
           transform="translate(406.0303,482.4087)"
           id="g254"><path
             id="path256"
             style="fill:#e98c4d;fill-opacity:1;fill-rule:nonzero;stroke:none"
             d="m 0,0 c -5.105,0 -9.244,-4.46 -9.244,-9.964 0,-5.504 4.139,-9.969 9.244,-9.969 H 4.588 V 0 Z" /></g><g
           transform="translate(554.542,422.8149)"
           id="g258"><path
             id="path260"
             style="fill:#f8a268;fill-opacity:1;fill-rule:nonzero;stroke:none"
             d="m 0,0 c 0,-40.377 -32.734,-73.11 -73.111,-73.11 -40.379,0 -73.114,32.733 -73.114,73.11 v 70.118 c 0,40.377 32.735,73.11 73.114,73.11 C -32.734,143.228 0,110.495 0,70.118 Z" /></g><g
           id="g262"><g
             id="g264" /><g
             id="g276"><g
               style="opacity:0.5"
               id="g274"
               clip-path="url(#clipPath268)"><g
                 id="g272"
                 transform="translate(480.71,566.0249)"><path
                   id="path270"
                   style="fill:#f8a268;fill-opacity:1;fill-rule:nonzero;stroke:none"
                   d="m 0,0 c -40.047,-0.39 -72.393,-32.957 -72.393,-73.092 v -70.118 c 0,-40.137 32.346,-72.702 72.393,-73.094 z" /></g></g></g></g><g
           transform="translate(455.3838,464.7935)"
           id="g278"><path
             id="path280"
             style="fill:#0e3441;fill-opacity:1;fill-rule:nonzero;stroke:none"
             d="m 0,0 c 0,-3.822 -3.102,-6.921 -6.92,-6.921 -3.824,0 -6.924,3.099 -6.924,6.921 0,3.821 3.1,6.919 6.924,6.919 C -3.102,6.919 0,3.821 0,0" /></g><g
           transform="translate(524.124,464.7935)"
           id="g282"><path
             id="path284"
             style="fill:#0e3441;fill-opacity:1;fill-rule:nonzero;stroke:none"
             d="m 0,0 c 0,-3.822 -3.098,-6.921 -6.922,-6.921 -3.822,0 -6.922,3.099 -6.922,6.921 0,3.821 3.1,6.919 6.922,6.919 C -3.098,6.919 0,3.821 0,0" /></g><g
           transform="translate(461.7021,480.4614)"
           id="g286"><path
             id="path288"
             style="fill:#0e3441;fill-opacity:1;fill-rule:nonzero;stroke:none"
             d="m 0,0 c 0,-1.954 -1.584,-3.537 -3.535,-3.537 h -21.029 c -1.956,0 -3.532,1.583 -3.532,3.537 0,1.956 1.576,3.54 3.532,3.54 H -3.535 C -1.584,3.54 0,1.956 0,0" /></g><g
           transform="translate(530.2451,480.4614)"
           id="g290"><path
             id="path292"
             style="fill:#0e3441;fill-opacity:1;fill-rule:nonzero;stroke:none"
             d="m 0,0 c 0,-1.954 -1.59,-3.537 -3.541,-3.537 h -21.027 c -1.955,0 -3.537,1.583 -3.537,3.537 0,1.956 1.582,3.54 3.537,3.54 H -3.541 C -1.59,3.54 0,1.956 0,0" /></g><g
           transform="translate(458.6865,412.8989)"
           id="g294"><path
             id="path296"
             style="fill:#78361a;fill-opacity:1;fill-rule:nonzero;stroke:none"
             d="m 0,0 c 0.684,-11.63 10.09,-20.517 21.715,-20.517 11.631,0 21.035,9.235 21.721,20.517 z" /></g><g
           transform="translate(496.9951,411.7026)"
           id="g298"><path
             id="path300"
             style="fill:#ffffff;fill-opacity:1;fill-rule:nonzero;stroke:none"
             d="m 0,0 c 0,-3.079 -2.396,-5.475 -5.477,-5.475 h -22.062 c -3.074,0 -5.471,2.396 -5.471,5.475 v 1.196 h 32.834 l 0,-1.196 z" /></g><g
           transform="translate(493.2275,396.3169)"
           id="g302"><path
             id="path304"
             style="fill:#b51f38;fill-opacity:1;fill-rule:nonzero;stroke:none"
             d="m 0,0 c -3.59,2.902 -7.865,4.437 -12.826,4.437 -4.959,0 -9.233,-1.706 -12.822,-4.437 3.589,-2.569 8.039,-4.28 12.822,-4.28 C -8.035,-3.935 -3.59,-2.569 0,0" /></g><g
           transform="translate(486.167,364.6802)"
           id="g306"><path
             id="path308"
             style="fill:#0e3441;fill-opacity:1;fill-rule:nonzero;stroke:none"
             d="m 0,0 c 0,-2.617 -2.119,-4.741 -4.736,-4.741 -2.619,0 -4.739,2.124 -4.739,4.741 v 8.53 c 0,2.62 2.12,4.741 4.739,4.741 C -2.119,13.271 0,11.15 0,8.53 Z" /></g><g
           transform="translate(550.8096,537.5776)"
           id="g310"><path
             id="path312"
             style="fill:#002538;fill-opacity:1;fill-rule:nonzero;stroke:none"
             d="m 0,0 v 7.615 c 0,28.912 -23.437,52.346 -52.346,52.346 h -51.607 c -28.912,0 -52.346,-23.434 -52.346,-52.346 v -21.806 h 119.998 c 11.489,0 20.797,-9.311 20.797,-20.796 v -22.527 c 0,-6.885 5.289,-12.809 12.168,-13.133 7.346,-0.347 13.404,5.503 13.404,12.77 v 45.388 C 10.068,-6.361 5.756,-1.247 0,0" /></g><g
           transform="translate(487.1826,555.772)"
           id="g314"><path
             id="path316"
             style="fill:#002538;fill-opacity:1;fill-rule:nonzero;stroke:none"
             d="m 0,0 h -76.352 c -15.279,0 -27.667,-12.388 -27.667,-27.669 v -2.193 c 0,-15.282 12.388,-27.671 27.667,-27.671 H 0 c 15.279,0 27.668,12.389 27.668,27.671 v 2.193 C 27.668,-12.388 15.279,0 0,0" /></g><g
           transform="translate(430.6045,420.0376)"
           id="g318"><path
             id="path320"
             style="fill:#0e3441;fill-opacity:1;fill-rule:nonzero;stroke:none"
             d="m 0,0 c 1.521,-11.812 11.59,-20.946 23.814,-20.946 h 2.375 c 12.227,0 22.297,9.134 23.819,20.946 z" /></g><g
           transform="translate(480.6104,420.0376)"
           id="g322"><path
             id="path324"
             style="fill:#0e3441;fill-opacity:1;fill-rule:nonzero;stroke:none"
             d="m 0,0 c 1.521,-11.812 11.592,-20.946 23.818,-20.946 h 2.375 c 12.225,0 22.297,9.134 23.819,20.946 z" /></g><g
           transform="translate(494.7061,424.9087)"
           id="g326"><path
             id="path328"
             style="fill:#d37637;fill-opacity:1;fill-rule:nonzero;stroke:none"
             d="m 0,0 c 0,-7.284 -5.902,-13.192 -13.191,-13.192 -7.284,0 -13.19,5.908 -13.19,13.192 v 23.958 c 0,7.285 5.906,13.191 13.19,13.191 C -5.902,37.149 0,31.243 0,23.958 Z" /></g><path
           id="path330"
           style="fill:#0e3441;fill-opacity:1;fill-rule:nonzero;stroke:none"
           d="m 530.274,310.271 h -99.32 V 326.9 h 99.32 z" /><g
           transform="translate(472.3701,326.9004)"
           id="g332"><path
             id="path334"
             style="fill:#ffffff;fill-opacity:1;fill-rule:nonzero;stroke:none"
             d="M 0,0 C -0.691,9.547 -8.633,17.076 -18.35,17.076 H -36.26 L -36.26,0 Z" /></g><g
           transform="translate(488.8564,326.9004)"
           id="g336"><path
             id="path338"
             style="fill:#ffffff;fill-opacity:1;fill-rule:nonzero;stroke:none"
             d="M 0,0 C 0.691,9.547 8.633,17.076 18.35,17.076 H 36.26 L 36.26,0 Z" /></g><g
           transform="translate(562.5244,70.7705)"
           id="g340"><path
             id="path342"
             style="fill:#0e3441;fill-opacity:1;fill-rule:nonzero;stroke:none"
             d="m 0,0 v 196.767 c 0,23.601 -19.133,42.736 -42.734,42.736 h -78.352 c -23.6,0 -42.734,-19.135 -42.734,-42.736 L -163.82,0 Z" /></g><g
           transform="translate(468.4775,445.2632)"
           id="g344"><path
             id="path346"
             style="fill:none;stroke:#231f20;stroke-width:2;stroke-linecap:butt;stroke-linejoin:miter;stroke-miterlimit:10;stroke-dasharray:none;stroke-opacity:1"
             d="m 0,0 c 0,-9.506 -7.707,-17.213 -17.213,-17.213 -9.506,0 -17.213,7.707 -17.213,17.213 0,9.506 7.707,17.213 17.213,17.213 C -7.707,17.213 0,9.506 0,0 Z" /></g><g
           transform="translate(526.7529,445.2632)"
           id="g348"><path
             id="path350"
             style="fill:none;stroke:#231f20;stroke-width:2;stroke-linecap:butt;stroke-linejoin:miter;stroke-miterlimit:10;stroke-dasharray:none;stroke-opacity:1"
             d="m 0,0 c 0,-9.506 -7.705,-17.213 -17.213,-17.213 -9.504,0 -17.213,7.707 -17.213,17.213 0,9.506 7.709,17.213 17.213,17.213 C -7.705,17.213 0,9.506 0,0 Z" /></g><g
           transform="translate(465.8291,451.5044)"
           id="g352"><path
             id="path354"
             style="fill:none;stroke:#231f20;stroke-width:2;stroke-linecap:butt;stroke-linejoin:miter;stroke-miterlimit:10;stroke-dasharray:none;stroke-opacity:1"
             d="M 0,0 C 6.789,9.241 20.996,9.241 27.785,0" /></g><g
           transform="translate(638.7041,116.2129)"
           id="g356"><path
             id="path358"
             style="fill:#0e3441;fill-opacity:1;fill-rule:nonzero;stroke:none"
             d="m 0,0 -114.102,0.283 v -40.56 L -0.1,-40.559 c 9.674,-0.025 17.536,9.038 17.561,20.237 C 17.488,-9.121 9.674,-0.021 0,0" /></g><g
           transform="translate(609.3701,105.1797)"
           id="g360"><path
             id="path362"
             style="fill:#0e3441;fill-opacity:1;fill-rule:nonzero;stroke:none"
             d="m 0,0 h 44.883 l -83.774,176.838 c -4.14,8.74 -15.703,11.937 -25.824,7.141 -10.123,-4.795 -14.971,-15.766 -10.83,-24.508 z" /></g><g
           transform="translate(351.4346,105.1797)"
           id="g364"><path
             id="path366"
             style="fill:#0e3441;fill-opacity:1;fill-rule:nonzero;stroke:none"
             d="m 0,0 h -44.882 l 83.774,176.838 c 4.14,8.74 15.704,11.937 25.824,7.141 10.122,-4.795 14.97,-15.766 10.829,-24.508 z" /></g><g
           transform="translate(322.1006,116.2129)"
           id="g368"><path
             id="path370"
             style="fill:#0e3441;fill-opacity:1;fill-rule:nonzero;stroke:none"
             d="m 0,0 114.104,0.283 v -40.56 L 0.1,-40.559 c -9.672,-0.025 -17.536,9.038 -17.561,20.237 C -17.488,-9.121 -9.672,-0.021 0,0" /></g><g
           transform="translate(463.6064,93.8105)"
           id="g372"><path
             id="path374"
             style="fill:#ffcfa8;fill-opacity:1;fill-rule:nonzero;stroke:none"
             d="m 0,0 c -9.529,0 -17.26,7.727 -17.26,17.258 0,9.529 7.731,17.256 17.26,17.256 4.76,0 9.061,-1.938 12.182,-5.059 h 7.4 C 15.494,35.998 8.281,40.389 0,40.389 c -12.775,0 -23.133,-10.356 -23.133,-23.131 0,-12.778 10.358,-23.133 23.133,-23.133 9.881,0 18.293,6.207 21.605,14.928 H 15.184 C 12.264,3.662 6.559,0 0,0" /></g><g
           transform="translate(494.9268,93.8105)"
           id="g376"><path
             id="path378"
             style="fill:#c89c78;fill-opacity:1;fill-rule:nonzero;stroke:none"
             d="m 0,0 c 9.529,0 17.26,7.727 17.26,17.258 0,9.529 -7.731,17.256 -17.26,17.256 -4.76,0 -9.061,-1.938 -12.182,-5.059 h -7.4 C -15.494,35.998 -8.281,40.389 0,40.389 12.775,40.389 23.133,30.033 23.133,17.258 23.133,4.48 12.775,-5.875 0,-5.875 c -9.881,0 -18.293,6.207 -21.607,14.928 h 6.423 C -12.266,3.662 -6.559,0 0,0" /></g><g
           transform="translate(463.6064,111.0664)"
           id="g380"><path
             id="path382"
             style="fill:#c89c78;fill-opacity:1;fill-rule:nonzero;stroke:none"
             d="m 0,0 c 0,-2.998 2.244,-5.428 5.01,-5.428 h 48.914 c 2.767,0 5.008,2.43 5.008,5.428 0,3 -2.241,5.43 -5.008,5.43 H 5.01 C 2.244,5.43 0,3 0,0" /></g><g
           transform="translate(463.6064,90.7852)"
           id="g384"><path
             id="path386"
             style="fill:#c89c78;fill-opacity:1;fill-rule:nonzero;stroke:none"
             d="m 0,0 c 0,-3.084 2.309,-5.586 5.156,-5.586 h 48.619 c 2.848,0 5.157,2.502 5.157,5.586 0,3.088 -2.309,5.592 -5.157,5.592 H 5.156 C 2.309,5.592 0,3.088 0,0" /></g><path
           id="path388"
           style="fill:#c89c78;fill-opacity:1;fill-rule:nonzero;stroke:none"
           d="m 458.599,75.936 h 66.004 v 40.561 h -66.004 z" /><g
           transform="translate(497.1982,111.0664)"
           id="g390"><path
             id="path392"
             style="fill:#ffcfa8;fill-opacity:1;fill-rule:nonzero;stroke:none"
             d="m 0,0 c 0,-2.998 -2.24,-5.428 -5.01,-5.428 h -48.914 c -2.765,0 -5.01,2.43 -5.01,5.428 0,3 2.245,5.43 5.01,5.43 H -5.01 C -2.24,5.43 0,3 0,0" /></g><g
           transform="translate(497.1982,90.7852)"
           id="g394"><path
             id="path396"
             style="fill:#ffcfa8;fill-opacity:1;fill-rule:nonzero;stroke:none"
             d="m 0,0 c 0,-3.084 -2.309,-5.586 -5.156,-5.586 h -48.621 c -2.848,0 -5.157,2.502 -5.157,5.586 0,3.088 2.309,5.592 5.157,5.592 H -5.156 C -2.309,5.592 0,3.088 0,0" /></g><path
           id="path398"
           style="fill:#ffcfa8;fill-opacity:1;fill-rule:nonzero;stroke:none"
           d="m 463.606,75.936 h -27.402 v 40.561 h 27.402 z" /><path
           id="path400"
           style="fill:#194754;fill-opacity:1;fill-rule:nonzero;stroke:none"
           d="m 562.524,177.02 h -163.82 v 10.684 h 163.82 z" /><path
           id="path402"
           style="fill:#194754;fill-opacity:1;fill-rule:nonzero;stroke:none"
           d="m 562.524,136.264 h -163.82 v 10.686 h 163.82 z" /><path
           id="path404"
           style="fill:#194754;fill-opacity:1;fill-rule:nonzero;stroke:none"
           d="m 562.524,215.252 h -163.82 v 10.686 h 163.82 z" /><path
           id="path406"
           style="fill:#194754;fill-opacity:1;fill-rule:nonzero;stroke:none"
           d="m 562.524,253.484 h -163.82 v 10.686 h 163.82 z" /><g
           transform="translate(402.9639,286.0449)"
           id="g408"><path
             id="path410"
             style="fill:#194754;fill-opacity:1;fill-rule:nonzero;stroke:none"
             d="m 0,0 h 155.299 c -1.897,3.934 -4.365,7.531 -7.322,10.684 H 7.322 C 4.369,7.531 1.897,3.934 0,0" /></g><g
           transform="translate(537.0068,222.9687)"
           id="g412"><path
             id="path414"
             style="fill:#ffcfa8;fill-opacity:1;fill-rule:nonzero;stroke:none"
             d="m 0,0 c 0,-1.312 -1.062,-2.375 -2.375,-2.375 h -40.941 c -1.311,0 -2.373,1.063 -2.373,2.375 v 24.139 c 0,1.312 1.062,2.373 2.373,2.373 H -2.375 C -1.062,26.512 0,25.451 0,24.139 Z" /></g><g
           transform="translate(516.5342,243.9902)"
           id="g416"><path
             id="path418"
             style="fill:#ffcfa8;fill-opacity:1;fill-rule:nonzero;stroke:none"
             d="m 0,0 c 0,-1.312 -1.062,-2.373 -2.375,-2.373 -1.313,0 -2.373,1.061 -2.373,2.373 v 9.498 c 0,1.311 1.06,2.373 2.373,2.373 C -1.062,11.871 0,10.809 0,9.498 Z" /></g><g
           transform="translate(504.6963,230.1035)"
           id="g420"><path
             id="path422"
             style="fill:#5d5d5d;fill-opacity:1;fill-rule:nonzero;stroke:none"
             d="m 0,0 c 0,-1.312 -1.062,-2.375 -2.375,-2.375 h -4.258 c -1.31,0 -2.373,1.063 -2.373,2.375 v 9.396 c 0,1.313 1.063,2.375 2.373,2.375 h 4.258 C -1.062,11.771 0,10.709 0,9.396 Z" /></g><g
           transform="translate(532.6279,239.5742)"
           id="g424"><path
             id="path426"
             style="fill:#5d5d5d;fill-opacity:1;fill-rule:nonzero;stroke:none"
             d="m 0,0 c 0,-0.602 -0.486,-1.088 -1.088,-1.088 h -15.724 c -0.598,0 -1.086,0.486 -1.086,1.088 0,0.602 0.488,1.09 1.086,1.09 H -1.088 C -0.486,1.09 0,0.602 0,0" /></g><g
           transform="translate(532.2314,234.4316)"
           id="g428"><path
             id="path430"
             style="fill:#5d5d5d;fill-opacity:1;fill-rule:nonzero;stroke:none"
             d="m 0,0 c 0,-0.135 -0.111,-0.246 -0.246,-0.246 h -16.611 c -0.135,0 -0.247,0.111 -0.247,0.246 0,0.137 0.112,0.248 0.247,0.248 H -0.246 C -0.111,0.248 0,0.137 0,0" /></g><g
           transform="translate(532.2314,231.8086)"
           id="g432"><path
             id="path434"
             style="fill:#5d5d5d;fill-opacity:1;fill-rule:nonzero;stroke:none"
             d="m 0,0 c 0,-0.135 -0.111,-0.246 -0.246,-0.246 h -16.611 c -0.135,0 -0.247,0.111 -0.247,0.246 0,0.139 0.112,0.248 0.247,0.248 H -0.246 C -0.111,0.248 0,0.139 0,0" /></g><g
           transform="translate(532.2314,229.1875)"
           id="g436"><path
             id="path438"
             style="fill:#5d5d5d;fill-opacity:1;fill-rule:nonzero;stroke:none"
             d="m 0,0 c 0,-0.135 -0.111,-0.246 -0.246,-0.246 h -16.611 c -0.135,0 -0.247,0.111 -0.247,0.246 0,0.137 0.112,0.248 0.247,0.248 H -0.246 C -0.111,0.248 0,0.137 0,0" /></g><g
           transform="translate(463.4326,655.8218)"
           id="g440"><path
             id="path442"
             style="fill:#ffffff;fill-opacity:1;fill-rule:nonzero;stroke:none"
             d="M 0,0 C 5.742,-1.715 7.141,-3.113 8.867,-8.857 10.586,-3.113 11.977,-1.715 17.725,0 11.977,1.721 10.586,3.118 8.867,8.867 7.141,3.118 5.742,1.721 0,0" /></g><g
           transform="translate(275.3936,400.7544)"
           id="g444"><path
             id="path446"
             style="fill:#ffffff;fill-opacity:1;fill-rule:nonzero;stroke:none"
             d="M 0,0 C 5.744,-1.716 7.146,-3.116 8.859,-8.861 10.585,-3.116 11.979,-1.716 17.73,0 11.979,1.72 10.585,3.111 8.859,8.861 7.146,3.111 5.744,1.72 0,0" /></g><g
           transform="translate(178.5088,669.3745)"
           id="g448"><path
             id="path450"
             style="fill:#ffffff;fill-opacity:1;fill-rule:nonzero;stroke:none"
             d="M 0,0 C 5.746,-1.717 7.144,-3.116 8.861,-8.864 10.587,-3.116 11.979,-1.717 17.726,0 11.979,1.722 10.587,3.114 8.861,8.86 7.144,3.114 5.746,1.722 0,0" /></g><g
           transform="translate(674.3232,667.3457)"
           id="g452"><path
             id="path454"
             style="fill:#ffffff;fill-opacity:1;fill-rule:nonzero;stroke:none"
             d="M 0,0 C 7.467,-2.234 9.287,-4.047 11.518,-11.519 13.756,-4.047 15.564,-2.234 23.037,0 15.564,2.238 13.756,4.046 11.518,11.525 9.287,4.046 7.467,2.238 0,0" /></g><g
           transform="translate(293.124,238.4844)"
           id="g456"><path
             id="path458"
             style="fill:#ffffff;fill-opacity:1;fill-rule:nonzero;stroke:none"
             d="M 0,0 C 7.468,-2.238 9.283,-4.051 11.516,-11.52 13.748,-4.051 15.564,-2.238 23.029,0 15.564,2.236 13.748,4.045 11.516,11.523 9.283,4.045 7.468,2.236 0,0" /></g><g
           transform="translate(228.792,458.4331)"
           id="g460"><path
             id="path462"
             style="fill:#ffffff;fill-opacity:1;fill-rule:nonzero;stroke:none"
             d="M 0,0 C 7.472,-2.236 9.29,-4.047 11.518,-11.52 13.756,-4.047 15.568,-2.236 23.039,0 15.568,2.234 13.756,4.045 11.518,11.522 9.29,4.045 7.472,2.234 0,0" /></g><g
           transform="translate(724.6963,454.9683)"
           id="g464"><path
             id="path466"
             style="fill:#ffffff;fill-opacity:1;fill-rule:nonzero;stroke:none"
             d="M 0,0 C 3.736,-1.121 4.643,-2.027 5.754,-5.76 6.875,-2.027 7.785,-1.121 11.52,0 7.785,1.119 6.875,2.023 5.754,5.764 4.643,2.023 3.736,1.119 0,0" /></g><g
           transform="translate(759.2139,296.0137)"
           id="g468"><path
             id="path470"
             style="fill:#ffffff;fill-opacity:1;fill-rule:nonzero;stroke:none"
             d="M 0,0 C 8.564,-2.559 10.646,-4.629 13.199,-13.195 15.762,-4.629 17.842,-2.559 26.393,0 17.842,2.561 15.762,4.641 13.199,13.197 10.646,4.641 8.564,2.561 0,0" /></g><g
           transform="translate(656.165,170.0879)"
           id="g472"><path
             id="path474"
             style="fill:#ffffff;fill-opacity:1;fill-rule:nonzero;stroke:none"
             d="M 0,0 C 4.102,-1.232 5.094,-2.219 6.32,-6.328 7.549,-2.219 8.547,-1.232 12.652,0 8.547,1.23 7.549,2.225 6.32,6.334 5.094,2.225 4.102,1.23 0,0" /></g><g
           transform="translate(694.6543,100.2109)"
           id="g476"><path
             id="path478"
             style="fill:#ffffff;fill-opacity:1;fill-rule:nonzero;stroke:none"
             d="m 0,0 c -3.035,0 -5.52,2.477 -5.52,5.525 0,3.053 2.485,5.524 5.52,5.524 3.051,0 5.527,-2.471 5.527,-5.524 C 5.527,2.477 3.051,0 0,0 m 0,18.396 c -7.098,0 -12.873,-5.759 -12.873,-12.871 0,-7.119 5.775,-12.869 12.873,-12.869 7.117,0 12.887,5.75 12.887,12.869 0,7.112 -5.77,12.871 -12.887,12.871" /></g><g
           transform="translate(741.5293,82.6992)"
           id="g480"><path
             id="path482"
             style="fill:#ffffff;fill-opacity:1;fill-rule:nonzero;stroke:none"
             d="m 0,0 h -29.07 c -6.623,0 -12.002,5.371 -12.002,12.008 V 39.59 H 12.002 V 12.008 C 12.002,5.371 6.615,0 0,0" /></g><g
           transform="translate(740.957,94.5254)"
           id="g484"><path
             id="path486"
             style="fill:#1bb36c;fill-opacity:1;fill-rule:nonzero;stroke:none"
             d="m 0,0 h -11.846 v 10.154 l 3.014,4.035 h 5.816 L 0,10.154 Z" /></g><g
           transform="translate(735.0332,106.0703)"
           id="g488"><path
             id="path490"
             style="fill:#97daf8;fill-opacity:1;fill-rule:nonzero;stroke:none"
             d="m 0,0 c -0.189,0 -0.336,0.148 -0.336,0.328 v 16.639 c 0,0.179 0.147,0.332 0.336,0.332 0.18,0 0.334,-0.153 0.334,-0.332 V 0.328 C 0.334,0.148 0.18,0 0,0" /></g><g
           id="g492"><g
             id="g494" /><g
             id="g514"><g
               style="opacity:0.5"
               id="g512"
               clip-path="url(#clipPath498)"><g
                 id="g502"
                 transform="translate(715.3184,131.9746)"><path
                   id="path500"
                   style="fill:#ffffff;fill-opacity:1;fill-rule:nonzero;stroke:none"
                   d="m 0,0 c -1.469,0 -2.664,1.201 -2.664,2.676 v 15.715 c 0,4.158 3.375,7.537 7.541,7.537 1.201,0 2.189,0.982 2.189,2.201 v 3.332 c 0,1.203 -0.988,2.191 -2.189,2.191 h -6.729 c -4.168,0 -7.55,3.377 -7.55,7.534 v 6.445 c 0,1.473 1.201,2.672 2.679,2.672 1.471,0 2.661,-1.199 2.661,-2.672 v -6.445 c 0,-1.215 0.992,-2.204 2.21,-2.204 h 6.729 c 4.15,0 7.525,-3.373 7.525,-7.521 v -3.332 c 0,-4.162 -3.375,-7.533 -7.525,-7.533 -1.205,0 -2.197,-0.994 -2.197,-2.205 V 2.676 C 2.68,1.201 1.48,0 0,0" /></g><g
                 id="g506"
                 transform="translate(727.0937,131.9746)"><path
                   id="path504"
                   style="fill:#ffffff;fill-opacity:1;fill-rule:nonzero;stroke:none"
                   d="m 0,0 c -1.48,0 -2.684,1.201 -2.684,2.676 v 11.103 c 0,1.471 1.204,2.668 2.684,2.668 1.477,0 2.67,-1.197 2.67,-2.668 V 2.676 C 2.67,1.201 1.477,0 0,0" /></g><g
                 id="g510"
                 transform="translate(737.3457,131.9746)"><path
                   id="path508"
                   style="fill:#ffffff;fill-opacity:1;fill-rule:nonzero;stroke:none"
                   d="m 0,0 c -1.469,0 -2.674,1.201 -2.674,2.676 v 11.679 c 0,4.829 3.94,8.764 8.778,8.764 3.078,0 5.595,2.51 5.595,5.594 v 4.107 c 0,3.092 -2.517,5.596 -5.595,5.596 h -6.491 c -4.851,0 -8.804,3.961 -8.804,8.811 v 13.125 c 0,1.47 1.193,2.675 2.664,2.675 1.478,0 2.677,-1.205 2.677,-2.675 V 47.227 c 0,-1.903 1.563,-3.459 3.463,-3.459 h 6.491 c 6.029,0 10.939,-4.916 10.939,-10.948 v -4.107 c 0,-6.031 -4.91,-10.94 -10.939,-10.94 -1.895,0 -3.424,-1.537 -3.424,-3.418 V 2.676 C 2.68,1.201 1.479,0 0,0" /></g></g></g></g><path
           id="path516"
           style="fill:#e3f4fc;fill-opacity:1;fill-rule:nonzero;stroke:none"
           d="m 771.307,80.732 h -88.623 v 3.035 h 88.623 z" /><g
           transform="translate(630.0361,397.6021)"
           id="g518"><path
             id="path520"
             style="fill:#f5f5f5;fill-opacity:1;fill-rule:nonzero;stroke:none"
             d="m 0,0 h 52.256 v 40.01 c 0,6.753 -5.492,12.244 -12.246,12.244 H 12.245 C 5.493,52.254 0,46.763 0,40.01 Z M 62.188,-9.931 H -9.931 V 40.01 c 0,12.229 9.949,22.176 22.176,22.176 H 40.01 c 12.229,0 22.178,-9.947 22.178,-22.176 z" /></g><g
           transform="translate(697.0264,417.0615)"
           id="g522"><path
             id="path524"
             style="fill:#ffca28;fill-opacity:1;fill-rule:nonzero;stroke:none"
             d="m 0,0 h -81.724 c -4.126,0 -7.47,-3.345 -7.47,-7.471 v -56.383 c 0,-4.125 3.344,-7.47 7.47,-7.47 H 0 c 4.125,0 7.471,3.345 7.471,7.47 V -7.471 C 7.471,-3.345 4.125,0 0,0" /></g><g
           transform="translate(669.4756,391.2231)"
           id="g526"><path
             id="path528"
             style="fill:#ffa000;fill-opacity:1;fill-rule:nonzero;stroke:none"
             d="m 0,0 c 0,7.353 -5.96,13.312 -13.311,13.312 -7.351,0 -13.312,-5.959 -13.312,-13.312 0,-5.892 3.832,-10.886 9.137,-12.639 v -16.144 c 0,-2.305 1.869,-4.176 4.175,-4.176 2.305,0 4.176,1.871 4.176,4.176 v 16.144 C -3.83,-10.886 0,-5.892 0,0" /></g><g
           id="g530"><g
             id="g532" /><g
             id="g544"><g
               id="g542"
               clip-path="url(#clipPath536)"><g
                 id="g540"
                 transform="translate(666.542,417.0615)"><path
                   id="path538"
                   style="fill:#ffffff;fill-opacity:1;fill-rule:nonzero;stroke:none"
                   d="m 0,0 h -51.239 c -4.126,0 -7.471,-3.345 -7.471,-7.471 v -51.237 z" /></g></g></g></g><g
           transform="translate(633.0596,154.2383)"
           id="g546"><path
             id="path548"
             style="fill:#424242;fill-opacity:1;fill-rule:nonzero;stroke:none"
             d="m 0,0 v 142.373 c 0,4.24 -3.738,7.678 -8.35,7.678 h -288.193 c -4.61,0 -8.349,-3.438 -8.349,-7.678 V 0 Z" /></g><path
           id="path550"
           style="fill:#e0e0e0;fill-opacity:1;fill-rule:nonzero;stroke:none"
           d="m 504.155,89.404 h -47.084 v 27.404 h 47.084 z" /><g
           transform="translate(538.7568,89.4043)"
           id="g552"><path
             id="path554"
             style="fill:#eeeeee;fill-opacity:1;fill-rule:nonzero;stroke:none"
             d="m 0,0 h -116.285 c -2.364,0 -4.281,-1.917 -4.281,-4.28 0,-2.365 1.917,-4.281 4.281,-4.281 H 0 c 2.362,0 4.281,1.916 4.281,4.281 C 4.281,-1.917 2.362,0 0,0" /></g><g
           id="g556"><g
             id="g558" /><g
             id="g568"><g
               style="opacity:0.19999701"
               id="g566"
               clip-path="url(#clipPath562)"><path
                 id="path564"
                 style="fill:#212121;fill-opacity:1;fill-rule:nonzero;stroke:none"
                 d="m 504.155,108.682 h -47.084 v 8.127 h 47.084 z" /></g></g></g><g
           transform="translate(328.168,154.2383)"
           id="g570"><path
             id="path572"
             style="fill:#eeeeee;fill-opacity:1;fill-rule:nonzero;stroke:none"
             d="m 0,0 v -33.811 c 0,-4.24 3.734,-7.681 8.348,-7.681 h 288.194 c 4.611,0 8.347,3.441 8.347,7.681 V 0 Z" /></g><g
           transform="translate(487.3125,133.4922)"
           id="g574"><path
             id="path576"
             style="fill:#bdbdbd;fill-opacity:1;fill-rule:nonzero;stroke:none"
             d="m 0,0 c 0,-3.701 -2.999,-6.701 -6.7,-6.701 -3.701,0 -6.7,3 -6.7,6.701 0,3.699 2.999,6.7 6.7,6.7 C -2.999,6.7 0,3.699 0,0" /></g><g
           transform="translate(497.5166,233.0078)"
           id="g578"><path
             id="path580"
             style="fill:#eeeeee;fill-opacity:1;fill-rule:nonzero;stroke:none"
             d="m 0,0 c 0,-10.994 -8.913,-19.906 -19.907,-19.906 h -0.632 c -10.993,0 -19.906,8.912 -19.906,19.906 v 0.631 c 0,10.994 8.913,19.907 19.906,19.907 h 0.632 C -8.913,20.538 0,11.625 0,0.631 Z" /></g><g
           transform="translate(524.8193,268.6855)"
           id="g582"><path
             id="path584"
             style="fill:#eeeeee;fill-opacity:1;fill-rule:nonzero;stroke:none"
             d="M 0,0 -42.857,9.826 -85.715,0 v -62.664 c 0,-9.434 5.133,-18.121 13.395,-22.674 l 29.463,-16.233 29.462,16.233 C -5.133,-80.785 0,-72.098 0,-62.664 Z" /></g><g
           transform="translate(455.0205,187.9238)"
           id="g586"><path
             id="path588"
             style="fill:#bdbdbd;fill-opacity:1;fill-rule:nonzero;stroke:none"
             d="m 0,0 c -6.594,3.634 -10.691,10.568 -10.691,18.098 v 58.501 l 37.632,8.63 37.633,-8.63 V 18.098 C 64.574,10.568 60.477,3.634 53.883,0 L 26.941,-14.844 Z" /></g><g
           transform="translate(455.9658,189.6396)"
           id="g590"><path
             id="path592"
             style="fill:#039be5;fill-opacity:1;fill-rule:nonzero;stroke:none"
             d="M 0,0 C -5.969,3.289 -9.678,9.566 -9.678,16.382 V 73.323 L 25.996,81.501 61.67,73.323 V 16.382 C 61.67,9.566 57.961,3.289 51.991,-0.001 L 25.996,-14.323 Z" /></g><g
           transform="translate(481.9619,271.1406)"
           id="g594"><path
             id="path596"
             style="fill:#0288d1;fill-opacity:1;fill-rule:nonzero;stroke:none"
             d="m 0,0 -35.674,-8.178 v -6.929 L 0,-6.928 35.674,-15.107 v 6.929 z" /></g><g
           transform="translate(456.8643,224.7148)"
           id="g598"><path
             id="path600"
             style="fill:#ffffff;fill-opacity:1;fill-rule:nonzero;stroke:none"
             d="m 0,0 c 6.318,-5.35 12.639,-10.698 18.959,-16.047 0.894,-0.758 2.503,-1.072 3.351,0 10.513,13.296 21.026,26.592 31.539,39.889 1.874,2.369 -1.456,5.748 -3.351,3.35 C 39.984,13.896 29.471,0.601 18.959,-12.695 H 22.31 C 15.99,-7.348 9.671,-1.998 3.351,3.351 1.033,5.312 -2.337,1.977 0,0" /></g><g
           transform="translate(837.2002,70.6543)"
           id="g602"><path
             id="path604"
             style="fill:#ffffff;fill-opacity:1;fill-rule:nonzero;stroke:none"
             d="m 0,0 h 68.996 c 6.449,0 6.449,10 0,10 H 0 C -6.449,10 -6.449,0 0,0" /></g><g
           transform="translate(185.1963,70.6543)"
           id="g606"><path
             id="path608"
             style="fill:#ffffff;fill-opacity:1;fill-rule:nonzero;stroke:none"
             d="m 0,0 h 398.6 214.895 c 6.448,0 6.448,10 0,10 H 215.314 0 C -6.449,10 -6.449,0 0,0" /></g><g
           transform="translate(103.1963,70.6543)"
           id="g610"><path
             id="path612"
             style="fill:#ffffff;fill-opacity:1;fill-rule:nonzero;stroke:none"
             d="m 0,0 h 51.5 c 6.449,0 6.449,10 0,10 H 0 C -6.449,10 -6.449,0 0,0" /></g></g></g></g></svg>